<?xml version="1.0" encoding="iso-8859-1"?>
<!-- Generator: Adobe Illustrator 19.0.0, SVG Export Plug-In . SVG Version: 6.00 Build 0)  -->
<svg version="1.1" id="Layer_1" xmlns="http://www.w3.org/2000/svg" xmlns:xlink="http://www.w3.org/1999/xlink" x="0px" y="0px"
	 viewBox="0 0 503.607 503.607" style="enable-background:new 0 0 503.607 503.607;" xml:space="preserve">
<g transform="translate(0 1)">
	<polygon style="fill:#FDCC00;" points="159.475,292.77 344.131,292.77 344.131,208.836 159.475,208.836 	"/>
	<g>
		<path style="fill:#FFE100;" d="M134.295,368.311L134.295,368.311c-14.269,0-25.18-11.751-25.18-25.18V158.475
			c0-13.43,10.911-25.18,25.18-25.18s25.18,10.911,25.18,25.18v184.656C159.475,356.561,147.725,368.311,134.295,368.311"/>
		<path style="fill:#FFE100;" d="M83.934,343.131L83.934,343.131c-14.269,0-25.18-11.751-25.18-25.18V183.656
			c0-14.269,10.911-25.18,25.18-25.18s25.18,10.911,25.18,25.18v134.295C109.115,331.38,97.364,343.131,83.934,343.131"/>
		<path style="fill:#FFE100;" d="M58.754,317.951L58.754,317.951c-13.43,0-25.18-11.751-25.18-25.18v-83.934
			c0-14.269,11.751-25.18,25.18-25.18l0,0c14.269,0,25.18,10.911,25.18,25.18v83.934C83.934,306.2,72.184,317.951,58.754,317.951"/>
	</g>
	<path style="fill:#FFFFFF;" d="M33.574,292.77v-83.934c0-9.233,5.036-17.626,12.59-21.823c-4.197-1.679-8.393-3.357-12.59-3.357
		c-14.269,0-25.18,10.911-25.18,25.18v83.934c0,13.43,11.751,25.18,25.18,25.18c4.197,0,9.233-1.679,12.59-3.357
		C38.61,310.397,33.574,302.003,33.574,292.77"/>
	<g>
		<path style="fill:#FFE100;" d="M369.311,133.295L369.311,133.295c14.269,0,25.18,10.911,25.18,25.18v184.656
			c0,13.43-10.911,25.18-25.18,25.18c-13.43,0-25.18-11.751-25.18-25.18V158.475C344.131,144.207,355.043,133.295,369.311,133.295"
			/>
		<path style="fill:#FFE100;" d="M419.672,158.475L419.672,158.475c14.269,0,25.18,10.911,25.18,25.18v134.295
			c0,13.43-10.911,25.18-25.18,25.18c-13.43,0-25.18-11.751-25.18-25.18V183.656C394.492,169.387,405.403,158.475,419.672,158.475"
			/>
		<path style="fill:#FFE100;" d="M444.852,183.656L444.852,183.656c14.269,0,25.18,10.911,25.18,25.18v83.934
			c0,13.43-10.911,25.18-25.18,25.18c-13.43,0-25.18-11.751-25.18-25.18v-83.934C419.672,194.567,430.584,183.656,444.852,183.656"
			/>
	</g>
	<path style="fill:#FFA800;" d="M470.033,183.656c-4.197,0-9.233,1.679-12.59,3.357c7.554,4.197,12.59,12.59,12.59,21.823v83.934
		c0,9.233-5.036,17.626-12.59,21.823c3.357,2.518,8.393,3.357,12.59,3.357c14.269,0,25.18-11.751,25.18-25.18v-83.934
		C495.213,194.567,483.462,183.656,470.033,183.656"/>
	<path d="M352.525,301.164H151.082V200.443h201.443V301.164z M167.869,284.377h167.869v-67.148H167.869V284.377z"/>
	<path d="M134.295,376.705c-18.466,0-33.574-15.108-33.574-33.574V158.475c0-18.466,15.108-33.574,33.574-33.574
		s33.574,15.108,33.574,33.574v184.656C167.869,361.597,152.761,376.705,134.295,376.705z M134.295,141.689
		c-9.233,0-16.787,7.554-16.787,16.787v184.656c0,9.233,7.554,16.787,16.787,16.787s16.787-7.554,16.787-16.787V158.475
		C151.082,149.243,143.528,141.689,134.295,141.689z"/>
	<path d="M83.934,351.525c-18.466,0-33.574-15.108-33.574-33.574V183.656c0-18.466,15.108-33.574,33.574-33.574
		s33.574,15.108,33.574,33.574v134.295C117.508,336.416,102.4,351.525,83.934,351.525z M83.934,166.869
		c-9.233,0-16.787,7.554-16.787,16.787v134.295c0,9.233,7.554,16.787,16.787,16.787s16.787-7.554,16.787-16.787V183.656
		C100.721,174.423,93.167,166.869,83.934,166.869z"/>
	<path d="M33.574,326.344C15.108,326.344,0,311.236,0,292.77v-8.393c0-5.036,3.357-8.393,8.393-8.393s8.393,3.357,8.393,8.393v8.393
		c0,9.233,7.554,16.787,16.787,16.787s16.787-7.554,16.787-16.787v-83.934c0-9.233-7.554-16.787-16.787-16.787
		s-16.787,7.554-16.787,16.787v8.393c0,5.036-3.357,8.393-8.393,8.393S0,222.266,0,217.229v-8.393
		c0-18.466,15.108-33.574,33.574-33.574s33.574,15.108,33.574,33.574v83.934C67.148,311.236,52.039,326.344,33.574,326.344z"/>
	<path d="M16.787,250.803c0-5.036-3.357-8.393-8.393-8.393S0,245.767,0,250.803s3.357,8.393,8.393,8.393
		S16.787,255.839,16.787,250.803"/>
	<path d="M369.311,376.705c-18.466,0-33.574-15.108-33.574-33.574V158.475c0-18.466,15.108-33.574,33.574-33.574
		s33.574,15.108,33.574,33.574v184.656C402.885,361.597,387.777,376.705,369.311,376.705z M369.311,141.689
		c-9.233,0-16.787,7.554-16.787,16.787v184.656c0,9.233,7.554,16.787,16.787,16.787c9.233,0,16.787-7.554,16.787-16.787V158.475
		C386.098,149.243,378.544,141.689,369.311,141.689z"/>
	<path d="M419.672,351.525c-18.466,0-33.574-15.108-33.574-33.574V183.656c0-18.466,15.108-33.574,33.574-33.574
		s33.574,15.108,33.574,33.574v134.295C453.246,336.416,438.138,351.525,419.672,351.525z M419.672,166.869
		c-9.233,0-16.787,7.554-16.787,16.787v134.295c0,9.233,7.554,16.787,16.787,16.787c9.233,0,16.787-7.554,16.787-16.787V183.656
		C436.459,174.423,428.905,166.869,419.672,166.869z"/>
	<path d="M470.033,326.344c-18.466,0-33.574-15.108-33.574-33.574v-83.934c0-18.466,15.108-33.574,33.574-33.574
		c18.466,0,33.574,15.108,33.574,33.574v83.934C503.607,311.236,488.498,326.344,470.033,326.344z M470.033,192.049
		c-9.233,0-16.787,7.554-16.787,16.787v83.934c0,9.233,7.554,16.787,16.787,16.787c9.233,0,16.787-7.554,16.787-16.787v-83.934
		C486.82,199.603,479.266,192.049,470.033,192.049z"/>
	<path d="M226.623,217.229c0-5.036-3.357-8.393-8.393-8.393s-8.393,3.357-8.393,8.393s3.357,8.393,8.393,8.393
		S226.623,222.266,226.623,217.229"/>
	<path d="M260.197,217.229c0-5.036-3.357-8.393-8.393-8.393c-5.036,0-8.393,3.357-8.393,8.393s3.357,8.393,8.393,8.393
		C256.839,225.623,260.197,222.266,260.197,217.229"/>
	<path d="M293.77,217.229c0-5.036-3.357-8.393-8.393-8.393c-5.036,0-8.393,3.357-8.393,8.393s3.357,8.393,8.393,8.393
		C289.574,225.623,293.77,222.266,293.77,217.229"/>
	<path d="M243.41,234.016c0-5.036-3.357-8.393-8.393-8.393c-5.036,0-8.393,3.357-8.393,8.393c0,5.036,3.357,8.393,8.393,8.393
		C240.052,242.41,243.41,239.052,243.41,234.016"/>
	<path d="M276.984,234.016c0-5.036-3.357-8.393-8.393-8.393s-8.393,3.357-8.393,8.393c0,5.036,3.357,8.393,8.393,8.393
		C272.787,242.41,276.984,239.052,276.984,234.016"/>
	<path d="M226.623,250.803c0-5.036-3.357-8.393-8.393-8.393s-8.393,3.357-8.393,8.393s3.357,8.393,8.393,8.393
		S226.623,255.839,226.623,250.803"/>
	<path d="M260.197,250.803c0-5.036-3.357-8.393-8.393-8.393c-5.036,0-8.393,3.357-8.393,8.393s3.357,8.393,8.393,8.393
		C256.839,259.197,260.197,255.839,260.197,250.803"/>
	<path d="M293.77,250.803c0-5.036-3.357-8.393-8.393-8.393c-5.036,0-8.393,3.357-8.393,8.393s3.357,8.393,8.393,8.393
		C289.574,259.197,293.77,255.839,293.77,250.803"/>
	<path d="M226.623,284.377c0-5.036-3.357-8.393-8.393-8.393s-8.393,3.357-8.393,8.393s3.357,8.393,8.393,8.393
		S226.623,289.413,226.623,284.377"/>
	<path d="M260.197,284.377c0-5.036-3.357-8.393-8.393-8.393c-5.036,0-8.393,3.357-8.393,8.393s3.357,8.393,8.393,8.393
		C256.839,292.77,260.197,289.413,260.197,284.377"/>
	<path d="M293.77,284.377c0-5.036-3.357-8.393-8.393-8.393c-5.036,0-8.393,3.357-8.393,8.393s3.357,8.393,8.393,8.393
		C289.574,292.77,293.77,289.413,293.77,284.377"/>
	<path d="M243.41,267.59c0-5.036-3.357-8.393-8.393-8.393c-5.036,0-8.393,3.357-8.393,8.393s3.357,8.393,8.393,8.393
		C240.052,275.984,243.41,272.626,243.41,267.59"/>
	<path d="M276.984,267.59c0-5.036-3.357-8.393-8.393-8.393s-8.393,3.357-8.393,8.393s3.357,8.393,8.393,8.393
		C272.787,275.984,276.984,272.626,276.984,267.59"/>
</g>
<g>
</g>
<g>
</g>
<g>
</g>
<g>
</g>
<g>
</g>
<g>
</g>
<g>
</g>
<g>
</g>
<g>
</g>
<g>
</g>
<g>
</g>
<g>
</g>
<g>
</g>
<g>
</g>
<g>
</g>
</svg>
