<?xml version="1.0" standalone="no"?>
<!DOCTYPE svg PUBLIC "-//W3C//DTD SVG 20010904//EN"
 "http://www.w3.org/TR/2001/REC-SVG-20010904/DTD/svg10.dtd">
<svg version="1.0" xmlns="http://www.w3.org/2000/svg"
 width="40.000000pt" height="32.000000pt" viewBox="0 0 40.000000 32.000000"
 preserveAspectRatio="xMidYMid meet">
<metadata>
Created by potrace 1.16, written by Peter Selinger 2001-2019
</metadata>
<g transform="translate(0.000000,32.000000) scale(0.007813,-0.006250)"
fill="#000000" stroke="none">
<path d="M3730 4533 c-124 -21 -191 -63 -351 -219 -111 -109 -148 -139 -205
-166 -65 -31 -76 -33 -206 -36 l-138 -4 0 -54 0 -54 138 0 c228 0 290 28 490
225 88 86 152 140 190 160 54 28 64 30 205 33 l147 4 0 59 0 59 -122 -1 c-68
-1 -134 -4 -148 -6z"/>
<path d="M3835 3920 c-175 -176 -228 -212 -340 -230 -33 -5 -196 -10 -362 -10
l-303 0 0 -55 0 -55 334 0 c183 0 358 5 387 10 107 20 172 63 333 220 144 142
148 147 135 171 -7 13 -16 43 -19 67 l-5 42 -160 -160z"/>
<path d="M4068 3656 c-88 -31 -109 -47 -269 -202 -97 -94 -152 -139 -195 -160
l-59 -29 -357 -3 -358 -3 0 -59 0 -60 330 0 c361 0 397 4 505 55 57 27 97 59
214 172 78 76 159 147 179 157 64 33 133 46 253 46 l115 0 0 55 -1 55 -145 0
c-126 0 -154 -3 -212 -24z"/>
<path d="M4276 3082 c-100 -99 -197 -188 -217 -200 -83 -50 -115 -52 -691 -52
l-538 0 0 -55 0 -55 564 0 c537 0 567 1 629 20 96 30 165 82 332 249 l150 151
67 0 68 0 0 60 0 60 -92 0 -92 0 -180 -178z"/>
<path d="M2830 2345 l0 -55 905 0 905 0 0 55 0 55 -905 0 -905 0 0 -55z"/>
<path d="M2830 1920 l0 -60 585 0 585 0 0 60 0 60 -585 0 -585 0 0 -60z"/>
<path d="M2830 1495 l0 -55 303 0 c166 0 331 -5 366 -10 102 -17 153 -50 301
-195 200 -195 266 -225 497 -225 l129 0 0 54 -1 53 -130 6 c-135 6 -202 21
-260 60 -16 11 -91 79 -165 151 -144 140 -210 183 -318 205 -32 7 -183 11
-387 11 l-335 0 0 -55z"/>
<path d="M2830 1065 l0 -55 113 0 c206 -1 245 -19 438 -206 202 -196 265 -224
506 -224 l113 0 0 59 0 59 -142 4 c-136 3 -146 5 -208 34 -51 24 -88 55 -170
139 -202 206 -283 245 -511 245 l-139 0 0 -55z"/>
</g>
</svg>
